<svg xmlns="http://www.w3.org/2000/svg" xmlns:xlink="http://www.w3.org/1999/xlink" width="500" zoomAndPan="magnify" viewBox="0 0 375 374.999991" height="500" preserveAspectRatio="xMidYMid meet" version="1.2"><defs><clipPath id="a96826428d"><path d="M 64.683594 8.945312 L 310.460938 8.945312 L 310.460938 238.574219 L 64.683594 238.574219 Z M 64.683594 8.945312 "/></clipPath><clipPath id="b649c3f7d8"><path d="M 187.5 8.945312 C 119.671875 8.945312 64.683594 60.347656 64.683594 123.757812 C 64.683594 187.167969 119.671875 238.574219 187.5 238.574219 C 255.328125 238.574219 310.316406 187.167969 310.316406 123.757812 C 310.316406 60.347656 255.328125 8.945312 187.5 8.945312 Z M 187.5 8.945312 "/></clipPath><clipPath id="f75af3aef1"><path d="M 72.683594 165.128906 L 302.652344 165.128906 L 302.652344 366.054688 L 72.683594 366.054688 Z M 72.683594 165.128906 "/></clipPath><clipPath id="f96dffb565"><path d="M 187.5 366.054688 L 302.316406 165.128906 L 72.683594 165.128906 Z M 187.5 366.054688 "/></clipPath><clipPath id="964b320754"><path d="M 81.742188 17.214844 L 294.832031 17.214844 L 294.832031 230.304688 L 81.742188 230.304688 Z M 81.742188 17.214844 "/></clipPath><clipPath id="79cd1deb20"><path d="M 188.289062 17.214844 C 129.445312 17.214844 81.742188 64.914062 81.742188 123.757812 C 81.742188 182.601562 129.445312 230.304688 188.289062 230.304688 C 247.128906 230.304688 294.832031 182.601562 294.832031 123.757812 C 294.832031 64.914062 247.128906 17.214844 188.289062 17.214844 Z M 188.289062 17.214844 "/></clipPath><clipPath id="a80cb9ea4a"><path d="M 81.742188 17.214844 L 294.742188 17.214844 L 294.742188 230.214844 L 81.742188 230.214844 Z M 81.742188 17.214844 "/></clipPath><clipPath id="10824714b3"><path d="M 188.242188 17.214844 C 129.425781 17.214844 81.742188 64.894531 81.742188 123.714844 C 81.742188 182.53125 129.425781 230.214844 188.242188 230.214844 C 247.058594 230.214844 294.742188 182.53125 294.742188 123.714844 C 294.742188 64.894531 247.058594 17.214844 188.242188 17.214844 Z M 188.242188 17.214844 "/></clipPath><clipPath id="5fd368297b"><path d="M 190 59.546875 L 255 59.546875 L 255 125 L 190 125 Z M 190 59.546875 "/></clipPath></defs><g id="ee583aa79b"><g clip-rule="nonzero" clip-path="url(#a96826428d)"><g clip-rule="nonzero" clip-path="url(#b649c3f7d8)"><path style=" stroke:none;fill-rule:nonzero;fill:#0cc0df;fill-opacity:1;" d="M 64.683594 8.945312 L 310.460938 8.945312 L 310.460938 238.574219 L 64.683594 238.574219 Z M 64.683594 8.945312 "/></g></g><g clip-rule="nonzero" clip-path="url(#f75af3aef1)"><g clip-rule="nonzero" clip-path="url(#f96dffb565)"><path style=" stroke:none;fill-rule:nonzero;fill:#0cc0df;fill-opacity:1;" d="M 72.683594 165.128906 L 302.652344 165.128906 L 302.652344 366.054688 L 72.683594 366.054688 Z M 72.683594 165.128906 "/></g></g><g clip-rule="nonzero" clip-path="url(#964b320754)"><g clip-rule="nonzero" clip-path="url(#79cd1deb20)"><path style=" stroke:none;fill-rule:nonzero;fill:#024e5b;fill-opacity:1;" d="M 81.742188 17.214844 L 294.832031 17.214844 L 294.832031 230.304688 L 81.742188 230.304688 Z M 81.742188 17.214844 "/></g></g><g clip-rule="nonzero" clip-path="url(#a80cb9ea4a)"><g clip-rule="nonzero" clip-path="url(#10824714b3)"><path style="fill:none;stroke-width:20;stroke-linecap:butt;stroke-linejoin:miter;stroke:#ffffff;stroke-opacity:1;stroke-miterlimit:4;" d="M 142.054741 0.00109557 C 63.597447 0.00109557 0.0000421065 63.598501 0.0000421065 142.055795 C 0.0000421065 220.507878 63.597447 284.110494 142.054741 284.110494 C 220.506825 284.110494 284.109441 220.507878 284.109441 142.055795 C 284.109441 63.598501 220.506825 0.00109557 142.054741 0.00109557 Z M 142.054741 0.00109557 " transform="matrix(0.749711,0,0,0.749711,81.742156,17.214022)"/></g></g><path style=" stroke:none;fill-rule:nonzero;fill:#ffffff;fill-opacity:1;" d="M 249.804688 187.878906 C 248.097656 189.554688 246.171875 190.304688 244.085938 190.304688 C 229.976562 190.304688 208.535156 156.03125 198.199219 141.765625 C 194.996094 137.347656 191.527344 133.226562 188.167969 129.570312 C 187.082031 128.382812 186.007812 127.246094 184.945312 126.164062 C 182.71875 123.859375 180.589844 121.800781 178.703125 120.042969 C 175.550781 117.09375 171.414062 115.433594 167.167969 115.433594 C 166.304688 115.433594 165.433594 115.496094 164.566406 115.636719 C 163.039062 115.886719 161.5625 116.003906 160.140625 116.003906 C 139.273438 116.003906 129.453125 90.703125 127.402344 81.402344 C 124.949219 70.191406 129.0625 67.144531 129.0625 67.144531 C 129.0625 67.144531 130.875 64.703125 136.824219 64.703125 C 138.601562 64.703125 140.742188 64.917969 143.324219 65.484375 C 153.261719 67.667969 181.460938 78.722656 177.566406 102.644531 C 176.722656 107.769531 178.421875 112.988281 181.960938 116.785156 C 183.75 118.699219 185.835938 120.855469 188.175781 123.125 C 189.199219 124.113281 190.277344 125.132812 191.394531 126.15625 C 195.074219 129.542969 199.226562 133.042969 203.6875 136.273438 C 220.058594 148.144531 262.800781 174.636719 249.804688 187.878906 "/><path style=" stroke:none;fill-rule:nonzero;fill:#ffffff;fill-opacity:1;" d="M 182.855469 128.058594 C 183.964844 129.203125 185.109375 130.414062 186.269531 131.679688 C 183.519531 134.789062 180.746094 138.175781 178.144531 141.765625 C 166.285156 158.136719 139.789062 200.878906 126.539062 187.878906 C 113.546875 174.636719 156.289062 148.144531 172.660156 136.273438 C 176.292969 133.644531 179.722656 130.835938 182.855469 128.058594 "/><g clip-rule="nonzero" clip-path="url(#5fd368297b)"><path style=" stroke:none;fill-rule:nonzero;fill:#ffffff;fill-opacity:1;" d="M 254.316406 76.164062 L 228.039062 105.117188 C 223.269531 110.371094 218.519531 109.542969 212.53125 110.171875 C 210.082031 110.433594 207.601562 111.585938 205.523438 113.15625 L 205.523438 113.148438 C 205.523438 113.148438 200.195312 117.355469 193.386719 124.144531 C 192.277344 123.125 191.210938 122.113281 190.191406 121.132812 C 197.027344 114.28125 201.277344 108.902344 201.277344 108.902344 L 201.269531 108.894531 C 202.832031 106.824219 203.992188 104.335938 204.253906 101.894531 C 204.882812 95.90625 204.054688 91.15625 209.300781 86.386719 L 238.261719 60.109375 C 238.847656 59.566406 239.703125 59.550781 240.21875 60.058594 C 240.742188 60.589844 240.695312 61.488281 240.113281 62.074219 L 210.5 91.6875 C 209.710938 92.472656 209.710938 93.730469 210.542969 94.351562 C 211.222656 94.867188 212.261719 94.707031 212.933594 94.035156 L 242.164062 64.804688 C 242.933594 64.03125 244.128906 63.976562 244.828125 64.675781 C 245.53125 65.375 245.472656 66.5625 244.695312 67.339844 L 215.421875 96.613281 C 214.695312 97.34375 214.636719 98.46875 215.292969 99.132812 C 215.953125 99.789062 217.082031 99.730469 217.8125 99.003906 L 247.085938 69.730469 C 247.863281 68.953125 249.050781 68.898438 249.75 69.589844 C 250.449219 70.289062 250.394531 71.492188 249.621094 72.261719 L 220.390625 101.492188 C 219.71875 102.164062 219.550781 103.195312 220.066406 103.882812 C 220.695312 104.714844 221.945312 104.707031 222.738281 103.925781 L 252.351562 74.3125 C 252.929688 73.726562 253.835938 73.675781 254.367188 74.207031 C 254.875 74.714844 254.851562 75.570312 254.316406 76.164062 "/></g></g></svg>