<svg xmlns="http://www.w3.org/2000/svg" xmlns:xlink="http://www.w3.org/1999/xlink" width="500" zoomAndPan="magnify" viewBox="0 0 375 374.999991" height="500" preserveAspectRatio="xMidYMid meet" version="1.2"><defs><clipPath id="aad87710d4"><path d="M 64.683594 8.945312 L 310.460938 8.945312 L 310.460938 238.574219 L 64.683594 238.574219 Z M 64.683594 8.945312 "/></clipPath><clipPath id="38097b4c69"><path d="M 187.5 8.945312 C 119.671875 8.945312 64.683594 60.347656 64.683594 123.757812 C 64.683594 187.167969 119.671875 238.574219 187.5 238.574219 C 255.328125 238.574219 310.316406 187.167969 310.316406 123.757812 C 310.316406 60.347656 255.328125 8.945312 187.5 8.945312 Z M 187.5 8.945312 "/></clipPath><clipPath id="0bb19c413b"><path d="M 72.683594 165.128906 L 302.652344 165.128906 L 302.652344 366.054688 L 72.683594 366.054688 Z M 72.683594 165.128906 "/></clipPath><clipPath id="3604e48a62"><path d="M 187.5 366.054688 L 302.316406 165.128906 L 72.683594 165.128906 Z M 187.5 366.054688 "/></clipPath><clipPath id="644f70f63a"><path d="M 81.742188 17.214844 L 294.832031 17.214844 L 294.832031 230.304688 L 81.742188 230.304688 Z M 81.742188 17.214844 "/></clipPath><clipPath id="ce0a5dd05d"><path d="M 188.289062 17.214844 C 129.445312 17.214844 81.742188 64.914062 81.742188 123.757812 C 81.742188 182.601562 129.445312 230.304688 188.289062 230.304688 C 247.128906 230.304688 294.832031 182.601562 294.832031 123.757812 C 294.832031 64.914062 247.128906 17.214844 188.289062 17.214844 Z M 188.289062 17.214844 "/></clipPath><clipPath id="108b48d4ad"><path d="M 81.742188 17.214844 L 294.742188 17.214844 L 294.742188 230.214844 L 81.742188 230.214844 Z M 81.742188 17.214844 "/></clipPath><clipPath id="014643e7c7"><path d="M 188.242188 17.214844 C 129.425781 17.214844 81.742188 64.894531 81.742188 123.714844 C 81.742188 182.53125 129.425781 230.214844 188.242188 230.214844 C 247.058594 230.214844 294.742188 182.53125 294.742188 123.714844 C 294.742188 64.894531 247.058594 17.214844 188.242188 17.214844 Z M 188.242188 17.214844 "/></clipPath><clipPath id="2fb71c674b"><path d="M 128.289062 48.757812 L 248.289062 48.757812 L 248.289062 196 L 128.289062 196 Z M 128.289062 48.757812 "/></clipPath></defs><g id="fbaf35f248"><g clip-rule="nonzero" clip-path="url(#aad87710d4)"><g clip-rule="nonzero" clip-path="url(#38097b4c69)"><path style=" stroke:none;fill-rule:nonzero;fill:#0cc0df;fill-opacity:1;" d="M 64.683594 8.945312 L 310.460938 8.945312 L 310.460938 238.574219 L 64.683594 238.574219 Z M 64.683594 8.945312 "/></g></g><g clip-rule="nonzero" clip-path="url(#0bb19c413b)"><g clip-rule="nonzero" clip-path="url(#3604e48a62)"><path style=" stroke:none;fill-rule:nonzero;fill:#0cc0df;fill-opacity:1;" d="M 72.683594 165.128906 L 302.652344 165.128906 L 302.652344 366.054688 L 72.683594 366.054688 Z M 72.683594 165.128906 "/></g></g><g clip-rule="nonzero" clip-path="url(#644f70f63a)"><g clip-rule="nonzero" clip-path="url(#ce0a5dd05d)"><path style=" stroke:none;fill-rule:nonzero;fill:#024e5b;fill-opacity:1;" d="M 81.742188 17.214844 L 294.832031 17.214844 L 294.832031 230.304688 L 81.742188 230.304688 Z M 81.742188 17.214844 "/></g></g><g clip-rule="nonzero" clip-path="url(#108b48d4ad)"><g clip-rule="nonzero" clip-path="url(#014643e7c7)"><path style="fill:none;stroke-width:20;stroke-linecap:butt;stroke-linejoin:miter;stroke:#ffffff;stroke-opacity:1;stroke-miterlimit:4;" d="M 142.054741 0.00109557 C 63.597447 0.00109557 0.0000421065 63.598501 0.0000421065 142.055795 C 0.0000421065 220.507878 63.597447 284.110494 142.054741 284.110494 C 220.506825 284.110494 284.109441 220.507878 284.109441 142.055795 C 284.109441 63.598501 220.506825 0.00109557 142.054741 0.00109557 Z M 142.054741 0.00109557 " transform="matrix(0.749711,0,0,0.749711,81.742156,17.214022)"/></g></g><g clip-rule="nonzero" clip-path="url(#2fb71c674b)"><path style=" stroke:none;fill-rule:nonzero;fill:#ffffff;fill-opacity:1;" d="M 188.890625 48.769531 C 175.277344 48.757812 156.488281 52.648438 148.738281 55.90625 C 140.941406 59.125 135.757812 62.363281 134.140625 70.425781 L 128.300781 115.363281 L 128.300781 177.25 L 138.355469 177.25 L 138.355469 186.902344 C 138.347656 198.75 155.65625 198.75 155.632812 186.902344 L 155.632812 177.25 L 220.925781 177.25 L 220.925781 186.902344 C 220.9375 198.75 238.25 198.75 238.285156 186.902344 L 238.285156 177.25 L 248.261719 177.25 L 248.261719 115.363281 L 242.421875 70.425781 C 240.839844 62.363281 235.65625 59.125 227.902344 55.90625 C 220.109375 52.648438 201.320312 48.757812 187.753906 48.769531 "/></g><path style=" stroke:none;fill-rule:nonzero;fill:#024e5b;fill-opacity:1;" d="M 229.605469 157.859375 C 234.171875 157.824219 237.890625 154.105469 237.878906 149.503906 C 237.890625 144.933594 234.171875 141.214844 229.605469 141.230469 C 225.003906 141.214844 221.285156 144.933594 221.25 149.503906 C 221.285156 154.105469 225.003906 157.824219 229.605469 157.859375 "/><path style=" stroke:none;fill-rule:nonzero;fill:#024e5b;fill-opacity:1;" d="M 147.035156 157.859375 C 142.425781 157.824219 138.707031 154.105469 138.679688 149.503906 C 138.707031 144.933594 142.425781 141.214844 147.035156 141.230469 C 151.597656 141.214844 155.3125 144.933594 155.308594 149.503906 C 155.3125 154.105469 151.597656 157.824219 147.035156 157.859375 "/><path style=" stroke:none;fill-rule:nonzero;fill:#024e5b;fill-opacity:1;" d="M 187.671875 67.421875 L 163.582031 67.421875 C 158.757812 67.382812 158.757812 60.09375 163.582031 60.121094 L 212.976562 60.121094 C 217.839844 60.09375 217.839844 67.382812 212.976562 67.421875 L 187.671875 67.421875 "/><path style=" stroke:none;fill-rule:nonzero;fill:#024e5b;fill-opacity:1;" d="M 187.671875 74.722656 L 150.523438 74.722656 C 145.382812 74.742188 144.042969 77.347656 143.386719 81.289062 L 138.84375 113.898438 C 138.457031 116.988281 139.359375 120.085938 143.710938 120.0625 L 232.929688 120.0625 C 237.238281 120.085938 238.140625 116.988281 237.71875 113.898438 L 233.175781 81.289062 C 232.554688 77.347656 231.214844 74.742188 226.117188 74.722656 L 187.671875 74.722656 "/></g></svg>