<svg xmlns="http://www.w3.org/2000/svg" xmlns:xlink="http://www.w3.org/1999/xlink" width="500" zoomAndPan="magnify" viewBox="0 0 375 374.999991" height="500" preserveAspectRatio="xMidYMid meet" version="1.2"><defs><clipPath id="271cbdf1a9"><path d="M 64.683594 8.945312 L 310.460938 8.945312 L 310.460938 238.574219 L 64.683594 238.574219 Z M 64.683594 8.945312 "/></clipPath><clipPath id="fd08beed8a"><path d="M 187.5 8.945312 C 119.671875 8.945312 64.683594 60.347656 64.683594 123.757812 C 64.683594 187.167969 119.671875 238.574219 187.5 238.574219 C 255.328125 238.574219 310.316406 187.167969 310.316406 123.757812 C 310.316406 60.347656 255.328125 8.945312 187.5 8.945312 Z M 187.5 8.945312 "/></clipPath><clipPath id="8511f133cb"><path d="M 72.683594 165.128906 L 302.652344 165.128906 L 302.652344 366.054688 L 72.683594 366.054688 Z M 72.683594 165.128906 "/></clipPath><clipPath id="2619dbf6d5"><path d="M 187.5 366.054688 L 302.316406 165.128906 L 72.683594 165.128906 Z M 187.5 366.054688 "/></clipPath><clipPath id="d6110a5d97"><path d="M 81.742188 17.214844 L 294.832031 17.214844 L 294.832031 230.304688 L 81.742188 230.304688 Z M 81.742188 17.214844 "/></clipPath><clipPath id="d442fda1e9"><path d="M 188.289062 17.214844 C 129.445312 17.214844 81.742188 64.914062 81.742188 123.757812 C 81.742188 182.601562 129.445312 230.304688 188.289062 230.304688 C 247.128906 230.304688 294.832031 182.601562 294.832031 123.757812 C 294.832031 64.914062 247.128906 17.214844 188.289062 17.214844 Z M 188.289062 17.214844 "/></clipPath><clipPath id="6aa39193b8"><path d="M 81.742188 17.214844 L 294.742188 17.214844 L 294.742188 230.214844 L 81.742188 230.214844 Z M 81.742188 17.214844 "/></clipPath><clipPath id="b0a2a8362d"><path d="M 188.242188 17.214844 C 129.425781 17.214844 81.742188 64.894531 81.742188 123.714844 C 81.742188 182.53125 129.425781 230.214844 188.242188 230.214844 C 247.058594 230.214844 294.742188 182.53125 294.742188 123.714844 C 294.742188 64.894531 247.058594 17.214844 188.242188 17.214844 Z M 188.242188 17.214844 "/></clipPath><clipPath id="5f03ed63d8"><path d="M 137 77 L 239 77 L 239 182.136719 L 137 182.136719 Z M 137 77 "/></clipPath><clipPath id="b8b541befd"><path d="M 125 48.636719 L 252 48.636719 L 252 122 L 125 122 Z M 125 48.636719 "/></clipPath></defs><g id="a027a6d6f2"><g clip-rule="nonzero" clip-path="url(#271cbdf1a9)"><g clip-rule="nonzero" clip-path="url(#fd08beed8a)"><path style=" stroke:none;fill-rule:nonzero;fill:#0cc0df;fill-opacity:1;" d="M 64.683594 8.945312 L 310.460938 8.945312 L 310.460938 238.574219 L 64.683594 238.574219 Z M 64.683594 8.945312 "/></g></g><g clip-rule="nonzero" clip-path="url(#8511f133cb)"><g clip-rule="nonzero" clip-path="url(#2619dbf6d5)"><path style=" stroke:none;fill-rule:nonzero;fill:#0cc0df;fill-opacity:1;" d="M 72.683594 165.128906 L 302.652344 165.128906 L 302.652344 366.054688 L 72.683594 366.054688 Z M 72.683594 165.128906 "/></g></g><g clip-rule="nonzero" clip-path="url(#d6110a5d97)"><g clip-rule="nonzero" clip-path="url(#d442fda1e9)"><path style=" stroke:none;fill-rule:nonzero;fill:#024e5b;fill-opacity:1;" d="M 81.742188 17.214844 L 294.832031 17.214844 L 294.832031 230.304688 L 81.742188 230.304688 Z M 81.742188 17.214844 "/></g></g><g clip-rule="nonzero" clip-path="url(#6aa39193b8)"><g clip-rule="nonzero" clip-path="url(#b0a2a8362d)"><path style="fill:none;stroke-width:20;stroke-linecap:butt;stroke-linejoin:miter;stroke:#ffffff;stroke-opacity:1;stroke-miterlimit:4;" d="M 142.054741 0.00106164 C 63.597447 0.00106164 0.0000421065 63.598467 0.0000421065 142.055761 C 0.0000421065 220.507844 63.597447 284.11046 142.054741 284.11046 C 220.506825 284.11046 284.109441 220.507844 284.109441 142.055761 C 284.109441 63.598467 220.506825 0.00106164 142.054741 0.00106164 Z M 142.054741 0.00106164 " transform="matrix(0.749711,0,0,0.749711,81.742156,17.214048)"/></g></g><g clip-rule="nonzero" clip-path="url(#5f03ed63d8)"><path style=" stroke:none;fill-rule:nonzero;fill:#ffffff;fill-opacity:1;" d="M 137.359375 128.214844 L 137.359375 179.78125 C 137.359375 181.078125 138.410156 182.128906 139.707031 182.128906 L 195.050781 182.128906 L 195.050781 135.4375 L 221.050781 135.4375 L 221.050781 182.128906 L 236.515625 182.128906 C 237.8125 182.128906 238.863281 181.078125 238.863281 179.78125 L 238.863281 128.214844 L 188.140625 77.710938 Z M 178.632812 157.191406 L 155.171875 157.191406 L 155.171875 135.441406 L 178.632812 135.441406 Z M 178.632812 157.191406 "/></g><g clip-rule="nonzero" clip-path="url(#b8b541befd)"><path style=" stroke:none;fill-rule:nonzero;fill:#ffffff;fill-opacity:1;" d="M 249.144531 109.671875 L 188.113281 48.644531 L 159.324219 77.433594 L 159.324219 64.765625 C 159.324219 61.804688 156.921875 59.402344 153.960938 59.402344 C 151 59.402344 148.601562 61.804688 148.601562 64.765625 L 148.601562 88.15625 L 127.082031 109.671875 C 124.460938 112.292969 124.460938 116.535156 127.082031 119.152344 C 128.390625 120.460938 130.105469 121.113281 131.820312 121.113281 C 133.535156 121.113281 135.25 120.460938 136.5625 119.15625 L 188.117188 67.605469 L 239.667969 119.152344 C 242.285156 121.769531 246.527344 121.769531 249.144531 119.152344 C 251.757812 116.53125 251.757812 112.289062 249.144531 109.671875 Z M 249.144531 109.671875 "/></g></g></svg>