<svg xmlns="http://www.w3.org/2000/svg" xmlns:xlink="http://www.w3.org/1999/xlink" width="500" zoomAndPan="magnify" viewBox="0 0 375 374.999991" height="500" preserveAspectRatio="xMidYMid meet" version="1.2"><defs><clipPath id="fdb70be23c"><path d="M 64.683594 8.945312 L 310.460938 8.945312 L 310.460938 238.574219 L 64.683594 238.574219 Z M 64.683594 8.945312 "/></clipPath><clipPath id="85ba6ac963"><path d="M 187.5 8.945312 C 119.671875 8.945312 64.683594 60.347656 64.683594 123.757812 C 64.683594 187.167969 119.671875 238.574219 187.5 238.574219 C 255.328125 238.574219 310.316406 187.167969 310.316406 123.757812 C 310.316406 60.347656 255.328125 8.945312 187.5 8.945312 Z M 187.5 8.945312 "/></clipPath><clipPath id="6c3e3416f2"><path d="M 72.683594 165.128906 L 302.652344 165.128906 L 302.652344 366.054688 L 72.683594 366.054688 Z M 72.683594 165.128906 "/></clipPath><clipPath id="e2147ab692"><path d="M 187.5 366.054688 L 302.316406 165.128906 L 72.683594 165.128906 Z M 187.5 366.054688 "/></clipPath><clipPath id="ad989e7069"><path d="M 81.742188 17.214844 L 294.832031 17.214844 L 294.832031 230.304688 L 81.742188 230.304688 Z M 81.742188 17.214844 "/></clipPath><clipPath id="b12f7cacde"><path d="M 188.289062 17.214844 C 129.445312 17.214844 81.742188 64.914062 81.742188 123.757812 C 81.742188 182.601562 129.445312 230.304688 188.289062 230.304688 C 247.128906 230.304688 294.832031 182.601562 294.832031 123.757812 C 294.832031 64.914062 247.128906 17.214844 188.289062 17.214844 Z M 188.289062 17.214844 "/></clipPath><clipPath id="170d2f8bb0"><path d="M 81.742188 17.214844 L 294.742188 17.214844 L 294.742188 230.214844 L 81.742188 230.214844 Z M 81.742188 17.214844 "/></clipPath><clipPath id="33c4f5dae1"><path d="M 188.242188 17.214844 C 129.425781 17.214844 81.742188 64.894531 81.742188 123.714844 C 81.742188 182.53125 129.425781 230.214844 188.242188 230.214844 C 247.058594 230.214844 294.742188 182.53125 294.742188 123.714844 C 294.742188 64.894531 247.058594 17.214844 188.242188 17.214844 Z M 188.242188 17.214844 "/></clipPath><clipPath id="6a054c51d7"><path d="M 120.082031 57.90625 L 256.582031 57.90625 L 256.582031 194.40625 L 120.082031 194.40625 Z M 120.082031 57.90625 "/></clipPath></defs><g id="1cef31f9ce"><g clip-rule="nonzero" clip-path="url(#fdb70be23c)"><g clip-rule="nonzero" clip-path="url(#85ba6ac963)"><path style=" stroke:none;fill-rule:nonzero;fill:#0cc0df;fill-opacity:1;" d="M 64.683594 8.945312 L 310.460938 8.945312 L 310.460938 238.574219 L 64.683594 238.574219 Z M 64.683594 8.945312 "/></g></g><g clip-rule="nonzero" clip-path="url(#6c3e3416f2)"><g clip-rule="nonzero" clip-path="url(#e2147ab692)"><path style=" stroke:none;fill-rule:nonzero;fill:#0cc0df;fill-opacity:1;" d="M 72.683594 165.128906 L 302.652344 165.128906 L 302.652344 366.054688 L 72.683594 366.054688 Z M 72.683594 165.128906 "/></g></g><g clip-rule="nonzero" clip-path="url(#ad989e7069)"><g clip-rule="nonzero" clip-path="url(#b12f7cacde)"><path style=" stroke:none;fill-rule:nonzero;fill:#024e5b;fill-opacity:1;" d="M 81.742188 17.214844 L 294.832031 17.214844 L 294.832031 230.304688 L 81.742188 230.304688 Z M 81.742188 17.214844 "/></g></g><g clip-rule="nonzero" clip-path="url(#170d2f8bb0)"><g clip-rule="nonzero" clip-path="url(#33c4f5dae1)"><path style="fill:none;stroke-width:20;stroke-linecap:butt;stroke-linejoin:miter;stroke:#ffffff;stroke-opacity:1;stroke-miterlimit:4;" d="M 142.054741 0.00105651 C 63.597447 0.00105651 0.0000421065 63.598462 0.0000421065 142.055756 C 0.0000421065 220.507839 63.597447 284.110455 142.054741 284.110455 C 220.506825 284.110455 284.109441 220.507839 284.109441 142.055756 C 284.109441 63.598462 220.506825 0.00105651 142.054741 0.00105651 Z M 142.054741 0.00105651 " transform="matrix(0.749711,0,0,0.749711,81.742156,17.214052)"/></g></g><g clip-rule="nonzero" clip-path="url(#6a054c51d7)"><path style=" stroke:none;fill-rule:nonzero;fill:#ffffff;fill-opacity:1;" d="M 220.746094 189.910156 L 216.222656 174.078125 C 218.628906 172.789062 220.957031 171.351562 223.164062 169.746094 C 223.964844 169.929688 224.78125 170.046875 225.621094 170.046875 C 228.558594 170.046875 231.324219 168.902344 233.398438 166.820312 C 235.480469 164.746094 236.621094 161.980469 236.621094 159.042969 C 236.621094 158.210938 236.507812 157.402344 236.328125 156.605469 C 241.839844 149.027344 245.488281 140.21875 246.941406 130.984375 C 250.023438 129.035156 252.085938 125.617188 252.085938 121.707031 C 252.085938 117.800781 250.023438 114.382812 246.941406 112.429688 C 245.488281 103.195312 241.839844 94.386719 236.328125 86.804688 C 236.507812 86.015625 236.621094 85.203125 236.621094 84.371094 C 236.621094 81.433594 235.480469 78.671875 233.398438 76.59375 C 231.324219 74.515625 228.558594 73.371094 225.621094 73.371094 C 224.789062 73.371094 223.980469 73.484375 223.183594 73.664062 C 215.605469 68.152344 206.796875 64.503906 197.5625 63.050781 C 195.609375 59.96875 192.195312 57.90625 188.285156 57.90625 C 184.375 57.90625 180.957031 59.96875 179.007812 63.050781 C 169.773438 64.503906 160.964844 68.152344 153.382812 73.664062 C 152.59375 73.488281 151.78125 73.371094 150.945312 73.371094 C 148.007812 73.371094 145.246094 74.515625 143.167969 76.59375 C 141.089844 78.671875 139.945312 81.433594 139.945312 84.371094 C 139.945312 85.203125 140.0625 86.015625 140.242188 86.808594 C 134.730469 94.386719 131.078125 103.195312 129.628906 112.429688 C 126.546875 114.382812 124.480469 117.800781 124.480469 121.707031 C 124.480469 125.617188 126.546875 129.035156 129.628906 130.988281 C 131.078125 140.21875 134.730469 149.03125 140.242188 156.609375 C 140.0625 157.402344 139.945312 158.214844 139.945312 159.046875 C 139.945312 161.984375 141.089844 164.746094 143.167969 166.824219 C 145.246094 168.902344 148.007812 170.046875 150.945312 170.046875 C 151.785156 170.046875 152.605469 169.929688 153.402344 169.746094 C 155.613281 171.355469 157.941406 172.792969 160.347656 174.078125 L 155.824219 189.910156 L 120.082031 189.910156 L 120.082031 194.3125 L 256.488281 194.3125 L 256.488281 189.910156 Z M 165.328125 156.648438 C 163.550781 155.480469 161.894531 154.171875 160.335938 152.769531 L 168.875 144.230469 Z M 186.085938 80.019531 L 186.085938 102.082031 C 182.402344 102.613281 179.148438 104.441406 176.785156 107.101562 L 160.371094 90.683594 C 167.265625 84.46875 176.21875 80.535156 186.085938 80.019531 Z M 167.859375 80.328125 L 168.304688 73.46875 L 173.453125 77.992188 C 171.527344 78.652344 169.664062 79.433594 167.859375 80.328125 Z M 216.199219 90.683594 L 199.78125 107.101562 C 197.421875 104.445312 194.164062 102.613281 190.484375 102.082031 L 190.484375 80.019531 C 200.351562 80.535156 209.300781 84.46875 216.199219 90.683594 Z M 203.117188 77.996094 L 208.265625 73.46875 L 208.707031 80.328125 C 206.90625 79.433594 205.042969 78.652344 203.117188 77.996094 Z M 207.695312 144.230469 L 216.234375 152.769531 C 214.675781 154.171875 213.019531 155.480469 211.242188 156.648438 Z M 181.683594 128.308594 L 181.683594 119.507812 L 194.886719 119.507812 L 194.886719 128.308594 Z M 171.367188 135.515625 L 157.222656 149.660156 C 150.902344 142.617188 147.066406 133.550781 146.558594 123.910156 L 168.484375 123.910156 L 168.484375 128.308594 C 168.484375 130.5 170.09375 132.300781 172.1875 132.640625 Z M 168.484375 119.507812 L 146.59375 119.507812 C 147.113281 109.644531 151.046875 100.691406 157.257812 93.792969 L 174.320312 110.855469 C 173.703125 112.183594 173.277344 113.609375 173.058594 115.109375 L 172.882812 115.109375 C 170.457031 115.109375 168.484375 117.082031 168.484375 119.507812 Z M 188.285156 106.308594 C 193.59375 106.308594 198.039062 110.09375 199.0625 115.109375 L 177.507812 115.109375 C 178.53125 110.09375 182.972656 106.308594 188.285156 106.308594 Z M 219.308594 93.792969 C 225.523438 100.691406 229.457031 109.644531 229.972656 119.507812 L 208.085938 119.507812 C 208.085938 117.082031 206.113281 115.109375 203.683594 115.109375 L 203.507812 115.109375 C 203.292969 113.609375 202.863281 112.183594 202.25 110.855469 Z M 205.203125 135.515625 L 204.378906 132.640625 C 206.476562 132.300781 208.085938 130.5 208.085938 128.308594 L 208.085938 123.910156 L 230.011719 123.910156 C 229.5 133.550781 225.667969 142.617188 219.34375 149.660156 Z M 194.886719 167.429688 C 196.8125 167.152344 198.726562 166.761719 200.605469 166.242188 L 203.019531 174.695312 C 200.355469 175.433594 197.636719 175.972656 194.886719 176.300781 Z M 194.886719 162.988281 L 194.886719 146.21875 L 199.398438 162.011719 C 197.914062 162.421875 196.40625 162.746094 194.886719 162.988281 Z M 199.285156 119.507812 L 203.683594 119.507812 L 203.6875 128.308594 L 199.285156 128.308594 Z M 232.019531 136.5625 L 236.527344 141.691406 L 229.707031 142.128906 C 230.59375 140.328125 231.367188 138.472656 232.019531 136.5625 Z M 229.667969 101.285156 L 236.527344 101.726562 L 232 106.875 C 231.34375 104.949219 230.558594 103.085938 229.667969 101.285156 Z M 144.570312 106.875 L 140.046875 101.726562 L 146.90625 101.285156 C 146.007812 103.085938 145.226562 104.949219 144.570312 106.875 Z M 146.859375 142.128906 L 140.042969 141.691406 L 144.550781 136.566406 C 145.199219 138.472656 145.972656 140.328125 146.859375 142.128906 Z M 172.882812 128.308594 L 172.882812 119.507812 L 177.285156 119.507812 L 177.285156 128.308594 Z M 181.683594 162.988281 C 180.160156 162.746094 178.65625 162.421875 177.171875 162.011719 L 181.683594 146.21875 Z M 175.960938 166.242188 C 177.839844 166.761719 179.753906 167.152344 181.683594 167.429688 L 181.683594 176.300781 C 178.933594 175.972656 176.210938 175.433594 173.546875 174.695312 Z M 172.339844 178.921875 C 175.394531 179.773438 178.523438 180.371094 181.683594 180.722656 L 181.683594 189.910156 L 169.199219 189.910156 Z M 186.085938 132.710938 L 190.484375 132.710938 L 190.484375 189.910156 L 186.085938 189.910156 Z M 194.886719 180.722656 C 198.046875 180.375 201.171875 179.773438 204.230469 178.921875 L 207.367188 189.910156 L 194.886719 189.910156 Z M 195.601562 132.710938 L 199.828125 132.710938 L 216.171875 189.910156 L 211.945312 189.910156 Z M 214.984375 169.738281 L 212.496094 161.035156 C 213.242188 160.574219 213.96875 160.101562 214.679688 159.601562 C 214.8125 162.230469 215.84375 164.820312 217.84375 166.824219 C 218.101562 167.078125 218.394531 167.273438 218.667969 167.5 C 217.464844 168.296875 216.238281 169.039062 214.984375 169.738281 Z M 230.289062 163.714844 C 227.792969 166.207031 223.449219 166.207031 220.953125 163.714844 C 218.382812 161.140625 218.382812 156.953125 220.953125 154.378906 C 222.242188 153.089844 223.929688 152.449219 225.621094 152.449219 C 227.3125 152.449219 229 153.089844 230.289062 154.378906 C 231.535156 155.625 232.222656 157.28125 232.222656 159.046875 C 232.222656 160.808594 231.535156 162.464844 230.289062 163.714844 Z M 233.398438 151.265625 C 231.394531 149.261719 228.800781 148.234375 226.171875 148.101562 C 226.488281 147.644531 226.796875 147.175781 227.101562 146.707031 L 237.625 146.027344 C 236.585938 148.132812 235.414062 150.167969 234.109375 152.128906 C 233.871094 151.839844 233.667969 151.535156 233.398438 151.265625 Z M 240.371094 139.398438 L 233.417969 131.492188 C 233.539062 130.941406 233.640625 130.390625 233.742188 129.835938 C 235.691406 131.601562 238.253906 132.710938 241.085938 132.710938 C 241.46875 132.710938 241.832031 132.632812 242.203125 132.597656 C 241.738281 134.902344 241.125 137.175781 240.371094 139.398438 Z M 241.085938 128.308594 C 237.449219 128.308594 234.488281 125.347656 234.488281 121.707031 C 234.488281 118.070312 237.449219 115.109375 241.085938 115.109375 C 244.726562 115.109375 247.6875 118.070312 247.6875 121.707031 C 247.6875 125.347656 244.726562 128.308594 241.085938 128.308594 Z M 241.085938 110.707031 C 238.246094 110.707031 235.679688 111.820312 233.726562 113.589844 C 233.628906 113.03125 233.539062 112.472656 233.421875 111.921875 L 240.371094 104.015625 C 241.128906 106.238281 241.742188 108.511719 242.203125 110.820312 C 241.832031 110.78125 241.46875 110.707031 241.085938 110.707031 Z M 237.621094 97.386719 L 227.082031 96.710938 C 226.777344 96.242188 226.472656 95.773438 226.152344 95.316406 C 228.789062 95.1875 231.390625 94.160156 233.398438 92.152344 C 233.667969 91.882812 233.871094 91.578125 234.109375 91.289062 C 235.410156 93.246094 236.585938 95.285156 237.621094 97.386719 Z M 230.289062 79.703125 C 231.535156 80.953125 232.222656 82.609375 232.222656 84.371094 C 232.222656 86.136719 231.535156 87.792969 230.289062 89.039062 C 227.714844 91.613281 223.527344 91.613281 220.953125 89.039062 C 218.382812 86.464844 218.382812 82.277344 220.953125 79.703125 C 222.203125 78.457031 223.859375 77.769531 225.621094 77.769531 C 227.382812 77.769531 229.042969 78.457031 230.289062 79.703125 Z M 217.84375 76.59375 C 215.835938 78.601562 214.804688 81.203125 214.675781 83.839844 C 214.21875 83.523438 213.753906 83.214844 213.285156 82.914062 L 212.605469 72.371094 C 214.710938 73.40625 216.746094 74.582031 218.707031 75.886719 C 218.417969 76.121094 218.109375 76.328125 217.84375 76.59375 Z M 205.976562 69.621094 L 198.070312 76.570312 C 197.519531 76.453125 196.960938 76.363281 196.402344 76.265625 C 198.175781 74.3125 199.285156 71.746094 199.285156 68.90625 C 199.285156 68.523438 199.210938 68.164062 199.171875 67.789062 C 201.480469 68.253906 203.75 68.867188 205.976562 69.621094 Z M 188.285156 62.304688 C 191.921875 62.304688 194.886719 65.265625 194.886719 68.90625 C 194.886719 72.546875 191.921875 75.507812 188.285156 75.507812 C 184.644531 75.507812 181.683594 72.546875 181.683594 68.90625 C 181.683594 65.265625 184.644531 62.304688 188.285156 62.304688 Z M 180.167969 76.265625 C 179.605469 76.363281 179.046875 76.453125 178.496094 76.570312 L 170.589844 69.621094 C 172.816406 68.863281 175.089844 68.253906 177.394531 67.789062 C 177.359375 68.164062 177.285156 68.523438 177.285156 68.90625 C 177.285156 71.746094 178.394531 74.3125 180.167969 76.265625 Z M 163.960938 72.371094 L 163.285156 82.914062 C 162.816406 83.214844 162.351562 83.523438 161.890625 83.839844 C 161.765625 81.203125 160.734375 78.601562 158.726562 76.59375 C 158.460938 76.328125 158.152344 76.121094 157.863281 75.886719 C 159.824219 74.582031 161.863281 73.410156 163.960938 72.371094 Z M 146.28125 79.703125 C 147.527344 78.457031 149.183594 77.769531 150.945312 77.769531 C 152.710938 77.769531 154.367188 78.457031 155.617188 79.703125 C 158.1875 82.277344 158.1875 86.464844 155.617188 89.039062 C 153.042969 91.613281 148.855469 91.609375 146.28125 89.039062 C 145.03125 87.792969 144.347656 86.136719 144.347656 84.371094 C 144.347656 82.609375 145.03125 80.953125 146.28125 79.703125 Z M 143.167969 92.152344 C 145.179688 94.160156 147.777344 95.1875 150.417969 95.316406 C 150.097656 95.773438 149.792969 96.242188 149.488281 96.710938 L 138.949219 97.386719 C 139.984375 95.285156 141.160156 93.246094 142.460938 91.289062 C 142.695312 91.578125 142.902344 91.882812 143.167969 92.152344 Z M 136.199219 104.019531 L 143.148438 111.921875 C 143.03125 112.472656 142.941406 113.035156 142.84375 113.59375 C 140.886719 111.820312 138.324219 110.707031 135.480469 110.707031 C 135.097656 110.707031 134.738281 110.78125 134.367188 110.820312 C 134.832031 108.515625 135.441406 106.242188 136.199219 104.019531 Z M 135.480469 115.109375 C 139.121094 115.109375 142.082031 118.070312 142.082031 121.707031 C 142.082031 125.347656 139.121094 128.308594 135.480469 128.308594 C 131.84375 128.308594 128.882812 125.347656 128.882812 121.707031 C 128.882812 118.070312 131.84375 115.109375 135.480469 115.109375 Z M 135.480469 132.710938 C 138.316406 132.710938 140.875 131.601562 142.828125 129.835938 C 142.925781 130.390625 143.03125 130.941406 143.148438 131.492188 L 136.195312 139.398438 C 135.441406 137.175781 134.828125 134.902344 134.363281 132.59375 C 134.738281 132.632812 135.097656 132.710938 135.480469 132.710938 Z M 138.949219 146.03125 L 149.46875 146.707031 C 149.773438 147.179688 150.078125 147.644531 150.402344 148.105469 C 147.769531 148.234375 145.171875 149.265625 143.167969 151.269531 C 142.902344 151.535156 142.695312 151.84375 142.460938 152.132812 C 141.160156 150.167969 139.984375 148.132812 138.949219 146.03125 Z M 146.28125 163.714844 C 145.03125 162.464844 144.347656 160.808594 144.347656 159.046875 C 144.347656 157.28125 145.03125 155.625 146.28125 154.378906 C 147.566406 153.089844 149.257812 152.449219 150.949219 152.449219 C 152.636719 152.449219 154.328125 153.089844 155.617188 154.378906 C 158.1875 156.953125 158.1875 161.140625 155.617188 163.714844 C 153.121094 166.207031 148.773438 166.207031 146.28125 163.714844 Z M 157.902344 167.5 C 158.179688 167.273438 158.472656 167.078125 158.726562 166.824219 C 160.726562 164.820312 161.757812 162.230469 161.890625 159.601562 C 162.601562 160.101562 163.328125 160.578125 164.074219 161.035156 L 161.589844 169.738281 C 160.332031 169.039062 159.105469 168.296875 157.902344 167.5 Z M 176.742188 132.710938 L 180.96875 132.710938 L 164.621094 189.910156 L 160.398438 189.910156 Z M 176.742188 132.710938 "/></g></g></svg>